<svg xmlns="http://www.w3.org/2000/svg" enable-background="new 0 0 64 64" viewBox="0 0 64 64"><path fill="#acbdc5" d="M16,0h24v12H16V0z M16,28h32V16H16V28z M16,44h40V32H16V44z M16,60h48V48H16V60z"/><polygon fill="#57cef3" points="10 2 22 2 22 42 30 42 16 61 2 42 10 42"/><path fill="#0779e4" d="M12,44V0C9.8,0,8,1.8,8,4v36H1.6L0,43.2L16,64l10.6-13.7l-1.9-1.4l3.8-4.8H20c0,3.3-2.9,6-6.4,6
		c-2,0-3.9-0.9-5-2.3L5.7,44H12z"/><path fill="#314a52" fill-rule="evenodd" d="M20,4h-8V0h8c2.2,0,4,1.8,4,4v36h6.4l1.6,3.2l-5.4,7l-3.2-2.4l2.9-3.8H20V4z" clip-rule="evenodd"/></svg>